<?xml version="1.0" encoding="UTF-8" standalone="no"?>
<svg width="17px" height="18px" viewBox="0 0 17 18" version="1.1" xmlns="http://www.w3.org/2000/svg" xmlns:xlink="http://www.w3.org/1999/xlink">
    <!-- Generator: Sketch 41.1 (35376) - http://www.bohemiancoding.com/sketch -->
    <title>copy</title>
    <desc>Created with Sketch.</desc>
    <defs></defs>
    <g id="Symbols" stroke="none" stroke-width="1" fill="none" fill-rule="evenodd" opacity="0.300000012">
        <g id="ТТ-copy" transform="translate(-86.000000, -88.000000)">
            <g id="ТТ">
                <g id="Group-3" transform="translate(8.000000, 88.000000)">
                    <g id="copy" transform="translate(77.305263, 0.000000)">
                        <g id="Shape">
                            <polygon transform="translate(12.000000, 12.000000) scale(-1, 1) translate(-12.000000, -12.000000) " points="0 0 24 0 24 24 0 24"></polygon>
                            <path d="M17.2727273,0 L4.18181818,0 C2.98181818,0 2,0.981818182 2,2.18181818 L2,17.4545455 L4.18181818,17.4545455 L4.18181818,2.18181818 L17.2727273,2.18181818 L17.2727273,0 L17.2727273,0 Z M20.5454545,4.36363636 L8.54545455,4.36363636 C7.34545455,4.36363636 6.36363636,5.34545455 6.36363636,6.54545455 L6.36363636,21.8181818 C6.36363636,23.0181818 7.34545455,24 8.54545455,24 L20.5454545,24 C21.7454545,24 22.7272727,23.0181818 22.7272727,21.8181818 L22.7272727,6.54545455 C22.7272727,5.34545455 21.7454545,4.36363636 20.5454545,4.36363636 L20.5454545,4.36363636 Z M20.5454545,21.8181818 L8.54545455,21.8181818 L8.54545455,6.54545455 L20.5454545,6.54545455 L20.5454545,21.8181818 L20.5454545,21.8181818 Z" fill="#9F9F9F" transform="translate(12.363636, 12.000000) scale(-1, 1) translate(-12.363636, -12.000000) "></path>
                        </g>
                    </g>
                </g>
            </g>
        </g>
    </g>
</svg>