<?xml version="1.0" encoding="UTF-8" standalone="no"?>
<svg width="46px" height="24px" viewBox="0 0 46 24" version="1.1" xmlns="http://www.w3.org/2000/svg" xmlns:xlink="http://www.w3.org/1999/xlink">
    <!-- Generator: Sketch 41.1 (35376) - http://www.bohemiancoding.com/sketch -->
    <title>Combined Shape</title>
    <desc>Created with Sketch.</desc>
    <defs></defs>
    <g id="Page-1" stroke="none" stroke-width="1" fill="none" fill-rule="evenodd">
        <g id="order-info" transform="translate(-409.000000, -790.000000)" fill="#FFFFFF">
            <g id="2-copy" transform="translate(44.000000, 697.000000)">
                <g id="Group-10" transform="translate(68.000000, 76.000000)">
                    <g id="Group-2-Copy-6" transform="translate(286.292540, 0.000000)">
                        <path d="M17.7496554,22.0139397 L11.5400589,22.0139397 C11.2590579,22.0139397 11.0323312,22.2588254 11.0323312,22.5602232 C11.0323312,22.8616211 11.2594956,23.1065068 11.5400589,23.1065068 L17.7496554,23.1065068 C18.0302187,23.1065068 18.257383,22.8616211 18.257383,22.5602232 C18.257383,22.2588254 18.029781,22.0139397 17.7496554,22.0139397 Z M17.7482937,26.4060377 C17.7482937,26.104169 17.5206916,25.8597542 17.240566,25.8597542 L12.2254426,25.8597542 C11.9444416,25.8597542 11.7177149,26.1046399 11.7177149,26.4060377 C11.7177149,26.7074356 11.9448793,26.9523213 12.2254426,26.9523213 L17.240566,26.9523213 C17.5206916,26.9523213 17.7482937,26.7074356 17.7482937,26.4060377 Z M17.7496554,30.0675504 L11.5400589,30.0675504 C11.2590579,30.0675504 11.0323312,30.3124362 11.0323312,30.613834 C11.0323312,30.9152318 11.2594956,31.1601176 11.5400589,31.1601176 L17.7496554,31.1601176 C18.0302187,31.1601176 18.257383,30.9152318 18.257383,30.613834 C18.257383,30.3124362 18.029781,30.0675504 17.7496554,30.0675504 Z M55.932904,28.7483237 L51.4626549,22.8940473 C51.3696298,22.7683193 51.2213068,22.695641 51.0649459,22.6991699 L46.3680027,22.6991699 C46.3146069,22.6992126 46.2707113,22.6570728 46.2685755,22.6037197 L46.2685755,17.4931592 C46.2696345,17.3634187 46.2191089,17.2385719 46.1281144,17.1460856 C46.0371198,17.0535994 45.913111,17.0010505 45.7833705,17 L20.7277039,17 C20.5972727,16.9999957 20.4722408,17.0520799 20.3803862,17.1446814 C20.2885316,17.2372828 20.2374614,17.3627323 20.2385219,17.4931592 L20.2385219,36.6905723 C20.2385219,36.96074 20.4575361,37.1797543 20.7277039,37.1797543 L22.7440885,37.1797543 C22.9909155,37.1811826 23.1988015,36.9956315 23.2253164,36.7502286 C23.4464588,34.3740992 25.4404115,32.5571035 27.8268094,32.5571035 C30.2132074,32.5571035 32.20716,34.3740992 32.4283025,36.7502286 C32.4548174,36.9956315 32.6627034,37.1811826 32.9095304,37.1797543 L41.4562966,37.1797543 C41.7039489,37.1813897 41.9130873,36.9962508 41.9415016,36.7502286 C42.1519642,34.3667871 44.1482905,32.5389726 46.5410061,32.5389726 C48.9337218,32.5389726 50.930048,34.3667871 51.1405106,36.7502286 C51.168925,36.9962508 51.3780633,37.1813897 51.6257156,37.1797543 L55.5431492,37.1797543 C55.6728883,37.1797543 55.7973137,37.1282156 55.8890531,37.0364762 C55.9807926,36.9447368 56.0323312,36.8203114 56.0323312,36.6905723 L56.0323312,29.0466054 C56.0317676,28.9391322 55.996937,28.8346405 55.932904,28.7483237 L55.932904,28.7483237 Z M54.2863888,28.9710407 L46.4475445,28.9710407 C46.3816499,28.9710407 46.3282318,28.9176226 46.3282318,28.851728 L46.3282318,24.3218226 C46.3302975,24.2568028 46.3825248,24.2045755 46.4475445,24.2025099 L50.7428016,24.2025099 C50.8039892,24.2037432 50.8612006,24.2330824 50.8979081,24.2820517 L54.3818389,28.7801404 C54.4089543,28.8162942 54.4133159,28.864665 54.3931053,28.9050863 C54.3728947,28.9455075 54.3315811,28.9710407 54.2863888,28.9710407 Z M49.4383161,37.1757772 C49.4399246,38.3443306 48.7370304,39.3986407 47.6577349,39.84657 C46.5784394,40.2944994 45.3355674,40.0477213 44.5092746,39.2214286 C43.6829818,38.3951358 43.4362038,37.1522638 43.8841331,36.0729683 C44.3320625,34.9936728 45.3863726,34.2907786 46.5549259,34.292387 C48.1442701,34.2989621 49.4285907,35.5903981 49.4263849,37.1797543 L49.4383161,37.1757772 Z M30.7221309,37.1757772 C30.7237394,38.3443306 30.0208451,39.3986407 28.9415496,39.84657 C27.8622541,40.2944994 26.6193821,40.0477213 25.7930894,39.2214286 C24.9667966,38.3951358 24.7200186,37.1522638 25.1679479,36.0729683 C25.6158772,34.9936728 26.6701874,34.2907786 27.8387407,34.292387 C29.4296395,34.2967742 30.7163771,35.588851 30.7141767,37.1797543 L30.7221309,37.1757772 Z" id="Combined-Shape"></path>
                    </g>
                </g>
            </g>
        </g>
    </g>
</svg>