<svg width="46" height="24" viewBox="0 0 46 24" xmlns="http://www.w3.org/2000/svg"><title>Combined Shape</title><path d="M7.042 5.014H.832c-.28 0-.507.245-.507.546 0 .302.227.547.508.547h6.21c.28 0 .507-.245.507-.547 0-.301-.228-.546-.508-.546zm-.001 4.392c0-.302-.228-.546-.508-.546H1.518c-.281 0-.508.245-.508.546 0 .301.227.546.508.546h5.015c.28 0 .508-.245.508-.546zm.001 3.662H.832c-.28 0-.507.244-.507.546 0 .301.227.546.508.546h6.21c.28 0 .507-.245.507-.546 0-.302-.228-.546-.508-.546zm38.183-1.32l-4.47-5.854a.481.481 0 0 0-.398-.195h-4.696a.1.1 0 0 1-.1-.095V.494A.49.49 0 0 0 35.076 0H10.02a.49.49 0 0 0-.489.493v19.198c0 .27.22.489.49.489h2.016a.481.481 0 0 0 .48-.43 4.621 4.621 0 0 1 9.204 0 .481.481 0 0 0 .481.43h8.547a.485.485 0 0 0 .485-.43 4.617 4.617 0 0 1 9.2 0 .485.485 0 0 0 .484.43h3.918a.49.49 0 0 0 .489-.49v-7.643a.505.505 0 0 0-.1-.299zm-1.646.223H35.74a.12.12 0 0 1-.12-.12v-4.53a.123.123 0 0 1 .12-.118h4.295a.19.19 0 0 1 .155.08l3.484 4.497a.12.12 0 0 1-.095.191zm-4.848 8.205a2.887 2.887 0 1 1-2.884-2.884 2.883 2.883 0 0 1 2.872 2.888l.012-.004zm-18.716 0a2.887 2.887 0 1 1-2.884-2.884 2.883 2.883 0 0 1 2.876 2.888l.008-.004z" fill="#FFF" fill-rule="evenodd"/></svg>